<svg xmlns="http://www.w3.org/2000/svg" width="23.77" height="23.77" viewBox="0 0 23.77 23.77"><path d="M11.885,2.141c3.173,0,3.55.012,4.8.069a5.09,5.09,0,0,1,3.573,1.3,5.09,5.09,0,0,1,1.3,3.573c.057,1.253.069,1.629.069,4.8s-.012,3.55-.069,4.8a5.09,5.09,0,0,1-1.3,3.573,5.09,5.09,0,0,1-3.573,1.3c-1.253.057-1.629.069-4.8.069s-3.55-.012-4.8-.069a5.09,5.09,0,0,1-3.573-1.3,5.09,5.09,0,0,1-1.3-3.573c-.057-1.253-.069-1.629-.069-4.8s.012-3.55.069-4.8a5.09,5.09,0,0,1,1.3-3.573,5.09,5.09,0,0,1,3.573-1.3c1.253-.057,1.629-.069,4.8-.069m0-2.141c-3.228,0-3.633.014-4.9.071a7.1,7.1,0,0,0-4.99,1.923A7.1,7.1,0,0,0,.071,6.984C.014,8.252,0,8.657,0,11.885s.014,3.633.071,4.9a7.1,7.1,0,0,0,1.923,4.99A7.1,7.1,0,0,0,6.984,23.7c1.268.057,1.673.071,4.9.071s3.633-.014,4.9-.071a7.1,7.1,0,0,0,4.99-1.923,7.1,7.1,0,0,0,1.923-4.99c.057-1.268.071-1.673.071-4.9s-.014-3.633-.071-4.9a7.1,7.1,0,0,0-1.923-4.99A7.1,7.1,0,0,0,16.786.071C15.518.014,15.113,0,11.885,0Z" transform="translate(0 0)"/><path d="M11.941,5.838a6.1,6.1,0,1,0,6.1,6.1A6.1,6.1,0,0,0,11.941,5.838Zm0,10.065A3.962,3.962,0,1,1,15.9,11.941,3.962,3.962,0,0,1,11.941,15.9Z" transform="translate(-0.056 -0.056)"/><ellipse cx="1.426" cy="1.426" rx="1.426" ry="1.426" transform="translate(16.803 4.114)"/></svg>